<?xml version="1.0" encoding="UTF-8"?>
<svg id="Layer_1" data-name="Layer 1" xmlns="http://www.w3.org/2000/svg" viewBox="0 0 1080 1080">
  <defs>
    <style>
      .cls-1 {
        stroke-width: 0px;
      }
    </style>
  </defs>
  <g>
    <path class="cls-1" d="m510.66,17.15c20.91,0,41.81,0,62.72,0,3.27.61,6.53,1.29,9.81,1.82,27.88,4.54,56.31,6.93,83.57,13.91,254.93,65.26,417.86,301.07,388.1,563.18-15,132.12-73.13,243.9-174.66,329.5-149.42,125.98-320.74,161.88-505.8,98.43-189.79-65.07-302.79-202.17-343.11-398.7-3.91-19.04-5.52-38.55-8.2-57.85,0-21.58,0-43.16,0-64.74,2.61-18.95,4.69-38,7.92-56.84C66.98,236.06,231.41,67.61,439.83,27.35c23.4-4.52,47.22-6.86,70.84-10.21Zm29.77,712.65c55.62,0,111.23.31,166.85-.08,62.37-.45,106.18-44.43,106.44-106.59.24-58.65.23-117.3,0-175.95-.24-62.26-43.94-106.48-106.3-106.7-110.89-.39-221.79-.38-332.68,0-62.8.21-106.3,44.58-106.46,107.57-.15,57.98-.15,115.95.09,173.93.04,9.03.73,18.28,2.73,27.06,11.22,49.1,51.2,80.36,103.49,80.7,55.28.36,110.56.08,165.84.08Z"/>
    <path class="cls-1" d="m470.15,452.04c47.76,27.85,94.41,55.06,142.72,83.23-48.21,27.99-94.85,55.06-142.72,82.85v-166.08Z"/>
  </g>
  <path class="cls-1" d="m1526.05,1053c260.42.15,471.72,211.61,471.69,472.05-.03,260.78-212.01,472.38-472.78,471.95-260.38-.44-471.41-212.07-471.21-472.56.2-260.29,211.89-471.59,472.3-471.44Zm49.47,792.01v-291.46h98.32c4.93-38.34,9.74-75.78,14.72-114.54h-112.07c0-30-.89-58.9.29-87.72.89-21.68,12.56-35.16,34.03-37.68,22.68-2.66,45.77-1.79,68.68-2.42,3.96-.11,7.92-.02,12.01-.02v-102.25c-39.79-2.7-79.28-7.98-118.74-1.46-59.26,9.8-96.96,44.32-109.93,103.03-4.55,20.6-4.2,42.4-4.98,63.69-.78,21.3-.17,42.65-.17,65.23h-97.59v114.26h98.05v291.32h117.4Z"/>
</svg>