<?xml version="1.0" encoding="UTF-8"?>
<svg id="Layer_1" data-name="Layer 1" xmlns="http://www.w3.org/2000/svg" viewBox="0 0 1080 1080">
  <defs>
    <style>
      .cls-1 {
        stroke-width: 0px;
      }
    </style>
  </defs>
  <path class="cls-1" d="m27.2,549.88C26.73,265.97,257.4,34.13,540.8,33.67c286.64-.47,518.1,229.98,518.06,515.8-.05,284.66-230.66,515.55-515.12,515.73-285.27.18-516.07-230.07-516.54-515.31Zm464.54,68.32c58.28,44.64,115.39,88.39,172.55,132.09,1.82,1.39,4.07,2.37,6.25,3.14,19.08,6.74,33.37-3.43,37.92-26.49,17.73-89.98,35.54-179.94,53.36-269.89,6.27-31.63,12.76-63.22,18.96-94.86,2.49-12.72-3.62-19.8-16.47-18.48-6.57.67-13.16,2.71-19.37,5.11-35.08,13.55-70.05,27.4-105.06,41.13-105.04,41.17-210.1,82.29-315.09,123.59-8.97,3.53-19.8,7.02-19.75,18.85.05,12.37,10.57,16.85,20.49,20.79.62.25,1.31.3,1.95.52,29.26,9.9,58.61,19.56,87.72,29.87,8.04,2.85,14.1,2.1,21.42-2.59,85.23-54.52,170.65-108.72,256.23-162.68,4.83-3.05,11.49-3.21,17.3-4.71-2.78,5.16-4.43,11.55-8.52,15.28-40.72,37.21-81.85,73.98-122.85,110.89-28.7,25.84-57.38,51.72-87.04,78.46Z"/>
  <path class="cls-1" d="m1526.05,1053c260.42.15,471.72,211.61,471.69,472.05-.03,260.78-212.01,472.38-472.78,471.95-260.38-.44-471.41-212.07-471.21-472.56.2-260.29,211.89-471.59,472.3-471.44Zm49.47,792.01v-291.46h98.32c4.93-38.34,9.74-75.78,14.72-114.54h-112.07c0-30-.89-58.9.29-87.72.89-21.68,12.56-35.16,34.03-37.68,22.68-2.66,45.77-1.79,68.68-2.42,3.96-.11,7.92-.02,12.01-.02v-102.25c-39.79-2.7-79.28-7.98-118.74-1.46-59.26,9.8-96.96,44.32-109.93,103.03-4.55,20.6-4.2,42.4-4.98,63.69-.78,21.3-.17,42.65-.17,65.23h-97.59v114.26h98.05v291.32h117.4Z"/>
</svg>