<?xml version="1.0" encoding="UTF-8"?>
<svg id="Layer_1" data-name="Layer 1" xmlns="http://www.w3.org/2000/svg" viewBox="0 0 1080 1080">
  <defs>
    <style>
      .cls-1 {
        stroke-width: 0px;

      }
    </style>
  </defs>
  <g>
    <path class="cls-1" d="m511.42,949.12c-242.66-.07-439.4-197.22-439.12-440.04.28-242.17,197.45-438.73,439.8-438.45,242.34.27,438.85,197.17,438.69,439.57-.16,242.31-197.04,439-439.37,438.92Zm270.66-438.86h.79c0-32.79.23-65.58-.11-98.36-.13-12.84-.61-25.8-2.52-38.47-8.47-56.18-36.24-98.09-90.73-119.37-22.59-8.82-46.3-12.59-70.43-12.68-68.79-.27-137.58-.28-206.37.05-14.57.07-29.32.95-43.67,3.34-55.36,9.23-96.38,37.47-116.88,91.41-8.4,22.1-11.88,45.2-11.9,68.8-.05,68.21-.15,136.41.1,204.62.04,12.54.67,25.22,2.59,37.59,8.1,52.15,33.06,92.61,82.56,115.14,24.32,11.07,50.26,15.86,76.77,16.02,72.89.42,145.78.47,218.67-.02,28.3-.19,55.91-5.49,81.5-18.3,52.52-26.29,75.67-71.89,79.16-127.74,2.53-40.52.49-81.33.49-122.01Z"/>
    <path class="cls-1" d="m511.77,292.13c35.72,0,71.44-.34,107.16.19,11.91.18,24.04,1.52,35.64,4.17,43.11,9.83,70.97,41.25,76.47,85.45,1.19,9.56,1.79,19.24,1.81,28.87.15,67.35.58,134.71-.28,202.04-.21,16.4-2.75,33.48-7.99,48.98-13.53,40.08-43.99,61.42-85.1,63.7-51.1,2.84-102.4,2.58-153.61,2.73-33.94.1-67.97-.06-101.79-2.52-51.67-3.77-86.34-38.79-92.23-90.58-1.02-8.99-1.62-18.08-1.64-27.13-.13-67.64-.56-135.29.3-202.92.2-15.81,2.96-32.25,8.02-47.21,13.57-40.12,44.05-60.71,85.1-63.8,35.55-2.68,71.36-2.06,107.05-2.84,7.02-.15,14.05-.02,21.08-.02,0,.29,0,.59,0,.88Zm-.77,360.52c78.35.74,142.73-62.73,143.33-141.31.6-78.98-61.96-143.22-140.46-144.23-79.73-1.03-144.2,61.76-145.08,141.31-.88,79.41,62.28,143.47,142.21,144.23Zm144.67-256.45c15.65-.2,28.24-13.08,28.02-28.68-.21-15.68-12.92-28.17-28.62-28.14-16.05.03-28.91,13.22-28.43,29.16.47,15.81,13.11,27.86,29.03,27.66Z"/>
    <path class="cls-1" d="m512.8,417.81c51.38,1.01,91.92,42.65,90.83,93.31-1.11,51.44-42.61,91.83-93.32,90.83-51.29-1.02-91.95-42.78-90.85-93.32,1.11-51.4,42.65-91.81,93.35-90.82Z"/>
  </g>
  <path class="cls-1" d="m1526.05,1053c260.42.15,471.72,211.61,471.69,472.05-.03,260.78-212.01,472.38-472.78,471.95-260.38-.44-471.41-212.07-471.21-472.56.2-260.29,211.89-471.59,472.3-471.44Zm49.47,792.01v-291.46h98.32c4.93-38.34,9.74-75.78,14.72-114.54h-112.07c0-30-.89-58.9.29-87.72.89-21.68,12.56-35.16,34.03-37.68,22.68-2.66,45.77-1.79,68.68-2.42,3.96-.11,7.92-.02,12.01-.02v-102.25c-39.79-2.7-79.28-7.98-118.74-1.46-59.26,9.8-96.96,44.32-109.93,103.03-4.55,20.6-4.2,42.4-4.98,63.69-.78,21.3-.17,42.65-.17,65.23h-97.59v114.26h98.05v291.32h117.4Z"/>
</svg>