<?xml version="1.0" encoding="UTF-8"?>
<svg id="Layer_1" data-name="Layer 1" xmlns="http://www.w3.org/2000/svg" viewBox="0 0 1080 1080">
  <defs>
    <style>
      .cls-1 {
        stroke-width: 0px;
      }
    </style>
  </defs>
  <g>
    <path class="cls-1" d="m1060.69,505.01v64.71c-.58,2.6-1.48,5.17-1.68,7.8-6.11,80.59-29.39,155.97-71.7,224.7-82.24,133.59-200.58,215.83-355.15,244.88-18.76,3.52-37.84,5.32-56.77,7.92h-64.71c-2.92-.6-5.82-1.35-8.77-1.76-21.32-3-42.9-4.7-63.93-9.06C175.76,989.86-2.8,742.49,29.12,477.34c17-141.19,81.77-256.88,192.84-345.09C340.56,38.07,476.45,3.66,625.88,26.47c98.94,15.1,186.07,57.42,260.65,124.24,89.29,80.01,145.16,179.14,166.21,297.43,3.35,18.83,5.33,37.9,7.95,56.86Zm-795.61,28.25c0,76.81-.02,153.61,0,230.42.01,32.65,14.88,47.53,47.49,47.54,152.26.02,304.53.02,456.79,0,33.23,0,48.33-14.99,48.33-47.91,0-153.27,0-306.55,0-459.82,0-33.02-15.05-48.07-48.2-48.07-152.26-.02-304.53-.02-456.79,0-32.71,0-47.61,14.86-47.62,47.43-.03,76.81,0,153.61,0,230.42Z"/>
    <path class="cls-1" d="m732.66,720.36h-82.56c0-4.08,0-7.67,0-11.26,0-40.1.11-80.2-.1-120.3-.04-8.04-.66-16.2-2.15-24.09-4.41-23.42-20.05-36.19-42.15-35.14-21.11,1-40.14,18.29-42.62,39.07-.72,6-.88,12.1-.89,18.15-.07,40.44-.04,80.88-.04,121.32v12.35h-82.71v-249.88h82.68v32.16c2.29-1.83,3.2-2.28,3.73-3,25.82-35.33,61.3-42.07,100.81-31.67,39.69,10.45,57.98,40.55,64.11,78.82,2.43,15.19,2.35,30.87,2.47,46.33.3,40.77.09,81.55.06,122.33,0,1.32-.34,2.63-.64,4.85Z"/>
    <path class="cls-1" d="m431.73,720.46h-82v-249.99h82v249.99Z"/>
    <path class="cls-1" d="m344.37,392.53c-.22-25.69,18.53-43.37,46.25-43.61,27.62-.24,46.89,17.17,47.27,42.7.38,25.48-19.65,44-47.44,43.88-26.85-.11-45.88-17.86-46.09-42.98Z"/>
  </g>
  <path class="cls-1" d="m1526.05,1053c260.42.15,471.72,211.61,471.69,472.05-.03,260.78-212.01,472.38-472.78,471.95-260.38-.44-471.41-212.07-471.21-472.56.2-260.29,211.89-471.59,472.3-471.44Zm49.47,792.01v-291.46h98.32c4.93-38.34,9.74-75.78,14.72-114.54h-112.07c0-30-.89-58.9.29-87.72.89-21.68,12.56-35.16,34.03-37.68,22.68-2.66,45.77-1.79,68.68-2.42,3.96-.11,7.92-.02,12.01-.02v-102.25c-39.79-2.7-79.28-7.98-118.74-1.46-59.26,9.8-96.96,44.32-109.93,103.03-4.55,20.6-4.2,42.4-4.98,63.69-.78,21.3-.17,42.65-.17,65.23h-97.59v114.26h98.05v291.32h117.4Z"/>
</svg>