<?xml version="1.0" standalone="no"?>
<!DOCTYPE svg PUBLIC "-//W3C//DTD SVG 20010904//EN"
 "http://www.w3.org/TR/2001/REC-SVG-20010904/DTD/svg10.dtd">
<svg version="1.0" xmlns="http://www.w3.org/2000/svg"
 width="24.000000pt" height="24.000000pt" viewBox="0 0 24.000000 24.000000"
 preserveAspectRatio="xMidYMid meet">

<g transform="translate(0.000000,24.000000) scale(0.100000,-0.100000)"
fill="#000000" stroke="none">
<path d="M75 231 c-45 -20 -70 -60 -70 -112 0 -42 5 -53 33 -81 28 -28 39 -33
82 -33 43 0 54 5 82 33 28 28 33 39 33 82 0 42 -5 54 -31 81 -33 33 -92 46
-129 30z m112 -26 c35 -23 49 -82 29 -128 -34 -83 -150 -85 -190 -3 -17 36
-18 43 -5 80 24 69 101 93 166 51z"/>
<path d="M100 163 c0 -7 10 -19 22 -27 l22 -16 -22 -16 c-12 -8 -22 -20 -22
-27 0 -6 12 1 27 16 l28 27 -28 27 c-15 15 -27 22 -27 16z"/>
</g>
</svg>
