<?xml version="1.0" encoding="UTF-8"?>
<svg id="Layer_1" data-name="Layer 1" xmlns="http://www.w3.org/2000/svg" viewBox="0 0 1080 1080" stroke="#fff" fill="#1c1c1c">
  <defs>
    <style>
      .cls-1 {
        stroke-width: 10px;
      }
    </style>
  </defs>
  <path class="cls-1"   d="m555.39,63.67c260.42.15,471.72,211.61,471.69,472.05-.03,260.78-212.01,472.38-472.78,471.95-260.38-.44-471.41-212.07-471.21-472.56.2-260.29,211.89-471.59,472.3-471.44Zm49.47,792.01v-291.46h98.32c4.93-38.34,9.74-75.78,14.72-114.54h-112.07c0-30-.89-58.9.29-87.72.89-21.68,12.56-35.16,34.03-37.68,22.68-2.66,45.77-1.79,68.68-2.42,3.96-.11,7.92-.02,12.01-.02v-102.25c-39.79-2.7-79.28-7.98-118.74-1.46-59.26,9.8-96.96,44.32-109.93,103.03-4.55,20.6-4.2,42.4-4.98,63.69-.78,21.3-.17,42.65-.17,65.23h-97.59v114.26h98.05v291.32h117.4Z"/>
</svg>